<svg
   xmlns="http://www.w3.org/2000/svg"
   version="1.1"
   height="126.60275"
   width="126.61583"
   viewBox="0 0 126 126">
  <g
     transform="translate(-0.6966988,95.293047)" />
  <g
     transform="translate(-0.6966988,-0.706953)" >
    <g
       transform="translate(7.5007747,7.4999962)" >
      <path
         transform="translate(0,96)"
         style="fill:#FFFFFF" 
         d="m 70.652834,-14.916786 c -7.241309,5.1598371 -16.101542,8.1948025 -25.670603,8.1948025 -24.458221,0 -44.2855322,-19.8273095 -44.2855322,-44.2855315 0,-24.458221 19.8273112,-44.285532 44.2855322,-44.285532 24.458223,0 44.28553,19.827311 44.28553,44.285532 0,9.569061 -3.034964,18.429294 -8.194801,25.670603 l 29.09715,29.097158 c 2.86658,2.866576 2.84267,7.453256 -8.8e-4,10.29696 l -0.12212,0.12213 c -2.83647,2.836463 -7.45384,2.844173 -10.296966,0.0011 z m -25.670603,-2.225321 c 18.703344,0 33.865408,-15.162064 33.865408,-33.865408 0,-18.703343 -15.162064,-33.865406 -33.865408,-33.865406 -18.703342,0 -33.865407,15.162063 -33.865407,33.865406 0,18.703344 15.162065,33.865408 33.865407,33.865408 z"
      />
      <g
         transform="matrix(0.48673451,-0.00660104,0.00660104,0.48673451,13.466949,13.601898)"
         style="fill:#FFFFFF">
        <path d="m 64,5.103 c -33.347,0 -60.388,27.035 -60.388,60.388 0,26.682 17.303,49.317 41.297,57.303 3.017,0.56 4.125,-1.31 4.125,-2.905 0,-1.44 -0.056,-6.197 -0.082,-11.243 -16.8,3.653 -20.345,-7.125 -20.345,-7.125 -2.747,-6.98 -6.705,-8.836 -6.705,-8.836 -5.48,-3.748 0.413,-3.67 0.413,-3.67 6.063,0.425 9.257,6.223 9.257,6.223 5.386,9.23 14.127,6.562 17.573,5.02 0.542,-3.903 2.107,-6.568 3.834,-8.076 -13.413,-1.525 -27.514,-6.704 -27.514,-29.843 0,-6.593 2.36,-11.98 6.223,-16.21 -0.628,-1.52 -2.695,-7.662 0.584,-15.98 0,0 5.07,-1.623 16.61,6.19 C 53.7,35 58.867,34.327 64,34.304 c 5.13,0.023 10.3,0.694 15.127,2.033 11.526,-7.813 16.59,-6.19 16.59,-6.19 3.287,8.317 1.22,14.46 0.593,15.98 3.872,4.23 6.215,9.617 6.215,16.21 0,23.194 -14.127,28.3 -27.574,29.796 2.167,1.874 4.097,5.55 4.097,11.183 0,8.08 -0.07,14.583 -0.07,16.572 0,1.607 1.088,3.49 4.148,2.897 23.98,-7.994 41.263,-30.622 41.263,-57.294 C 124.388,32.14 97.35,5.104 64,5.104 Z" />
        <path d="m 26.484,91.806 c -0.133,0.3 -0.605,0.39 -1.035,0.185 -0.44,-0.196 -0.685,-0.605 -0.543,-0.906 0.13,-0.31 0.603,-0.395 1.04,-0.188 0.44,0.197 0.69,0.61 0.537,0.91 z m -0.743,-0.55 m 3.189,3.279 c -0.287,0.267 -0.85,0.143 -1.232,-0.28 -0.396,-0.42 -0.47,-0.983 -0.177,-1.254 0.298,-0.266 0.844,-0.14 1.24,0.28 0.394,0.426 0.472,0.984 0.17,1.255 z m -0.575,-0.618 m 2.957,4.095 c -0.37,0.258 -0.976,0.017 -1.35,-0.52 -0.37,-0.538 -0.37,-1.183 0.01,-1.44 0.373,-0.258 0.97,-0.025 1.35,0.507 0.368,0.545 0.368,1.19 -0.01,1.452 z m 0,0 m 3.261,3.361 c -0.33,0.365 -1.036,0.267 -1.552,-0.23 -0.527,-0.487 -0.674,-1.18 -0.343,-1.544 0.336,-0.366 1.045,-0.264 1.564,0.23 0.527,0.486 0.686,1.18 0.333,1.543 z m 0,0 m 4.5,1.951 c -0.147,0.473 -0.825,0.688 -1.51,0.486 -0.683,-0.207 -1.13,-0.76 -0.99,-1.238 0.14,-0.477 0.823,-0.7 1.512,-0.485 0.683,0.206 1.13,0.756 0.988,1.237 z m 0,0 m 4.943,0.361 c 0.017,0.498 -0.563,0.91 -1.28,0.92 -0.723,0.017 -1.308,-0.387 -1.315,-0.877 0,-0.503 0.568,-0.91 1.29,-0.924 0.717,-0.013 1.306,0.387 1.306,0.88 z m 0,0 m 4.598,-0.782 c 0.086,0.485 -0.413,0.984 -1.126,1.117 -0.7,0.13 -1.35,-0.172 -1.44,-0.653 -0.086,-0.498 0.422,-0.997 1.122,-1.126 0.714,-0.123 1.354,0.17 1.444,0.663 z m 0,0" />
           
      </g>
    </g>
  </g>
</svg>
